<svg width="254" height="72" viewBox="0 0 254 72" fill="none" xmlns="http://www.w3.org/2000/svg">
<path d="M58.1833 4H13.5618C8.28094 4 4 8.02912 4 12.9993V58.7457C4 63.7159 8.28094 67.745 13.5618 67.745H58.1833C63.4641 67.745 67.745 63.7159 67.745 58.7457V12.9993C67.745 8.02912 63.4641 4 58.1833 4Z" fill="#273145" stroke="#80FE02" stroke-width="8" stroke-linejoin="round"/>
<path d="M38.6613 47.0281H33.0836C32.4235 47.0281 31.8884 47.6183 31.8884 48.3463V63.6381C31.8884 64.3662 32.4235 64.9564 33.0836 64.9564H38.6613C39.3214 64.9564 39.8566 64.3662 39.8566 63.6381V48.3463C39.8566 47.6183 39.3214 47.0281 38.6613 47.0281Z" fill="#80FE02"/>
<path d="M57.984 29.8964H13.7608C12.7707 29.8964 11.968 30.699 11.968 31.6892V40.0557C11.968 41.0459 12.7707 41.8486 13.7608 41.8486H57.984C58.9741 41.8486 59.7768 41.0459 59.7768 40.0557V31.6892C59.7768 30.699 58.9741 29.8964 57.984 29.8964Z" fill="#80FE02"/>
<path d="M83.9756 47.9442C83.3783 47.9442 82.8876 47.7629 82.5036 47.4002C82.1196 47.0162 81.9276 46.5469 81.9276 45.9922V27.4322H86.0876V45.9922C86.0876 46.5469 85.885 47.0162 85.4796 47.4002C85.0956 47.7629 84.5943 47.9442 83.9756 47.9442ZM76.9036 29.2242C76.349 29.2242 75.8796 29.0535 75.4956 28.7122C75.133 28.3709 74.9516 27.9229 74.9516 27.3682C74.9516 26.8135 75.133 26.3762 75.4956 26.0562C75.8796 25.7149 76.349 25.5442 76.9036 25.5442H91.1116C91.6663 25.5442 92.125 25.7149 92.4876 26.0562C92.8716 26.3975 93.0636 26.8455 93.0636 27.4002C93.0636 27.9549 92.8716 28.4029 92.4876 28.7442C92.125 29.0642 91.6663 29.2242 91.1116 29.2242H76.9036ZM121.919 25.4482C122.41 25.4482 122.879 25.6402 123.327 26.0242C123.775 26.3869 123.999 26.8882 123.999 27.5282C123.999 27.7202 123.967 27.9335 123.903 28.1682L117.599 46.7282C117.471 47.1122 117.237 47.4109 116.895 47.6242C116.575 47.8162 116.234 47.9229 115.871 47.9442C115.509 47.9442 115.146 47.8375 114.783 47.6242C114.442 47.4109 114.175 47.1015 113.983 46.6962L109.247 35.9442L109.535 36.1362L104.863 46.6962C104.671 47.1015 104.394 47.4109 104.031 47.6242C103.69 47.8375 103.338 47.9442 102.975 47.9442C102.634 47.9229 102.293 47.8162 101.951 47.6242C101.61 47.4109 101.375 47.1122 101.247 46.7282L94.9434 28.1682C94.8794 27.9335 94.8474 27.7202 94.8474 27.5282C94.8474 26.8882 95.0714 26.3869 95.5194 26.0242C95.9887 25.6402 96.4687 25.4482 96.9594 25.4482C97.3647 25.4482 97.738 25.5549 98.0794 25.7682C98.442 25.9815 98.6874 26.2909 98.8154 26.6962L103.903 42.1202L103.199 42.0882L107.743 31.1762C107.914 30.7922 108.159 30.4935 108.479 30.2802C108.799 30.0455 109.162 29.9389 109.567 29.9602C109.973 29.9389 110.335 30.0455 110.655 30.2802C110.975 30.4935 111.21 30.7922 111.359 31.1762L115.519 41.6082L115.007 41.9282L120.031 26.6962C120.159 26.2909 120.405 25.9815 120.767 25.7682C121.13 25.5549 121.514 25.4482 121.919 25.4482ZM128.875 25.5442H139.595C140.15 25.5442 140.608 25.7255 140.971 26.0882C141.355 26.4295 141.547 26.8775 141.547 27.4322C141.547 27.9655 141.355 28.4029 140.971 28.7442C140.608 29.0642 140.15 29.2242 139.595 29.2242H130.635L130.923 28.6802V34.9202L130.667 34.6642H138.155C138.71 34.6642 139.168 34.8455 139.531 35.2082C139.915 35.5495 140.107 35.9975 140.107 36.5522C140.107 37.0855 139.915 37.5229 139.531 37.8642C139.168 38.1842 138.71 38.3442 138.155 38.3442H130.763L130.923 38.0882V44.5522L130.667 44.2642H139.595C140.15 44.2642 140.608 44.4562 140.971 44.8402C141.355 45.2029 141.547 45.6295 141.547 46.1202C141.547 46.6535 141.355 47.0909 140.971 47.4322C140.608 47.7735 140.15 47.9442 139.595 47.9442H128.875C128.32 47.9442 127.851 47.7629 127.467 47.4002C127.104 47.0162 126.923 46.5469 126.923 45.9922V27.4962C126.923 26.9415 127.104 26.4829 127.467 26.1202C127.851 25.7362 128.32 25.5442 128.875 25.5442ZM162.227 25.5442C162.739 25.5442 163.155 25.7149 163.475 26.0562C163.795 26.3975 163.955 26.8242 163.955 27.3362V45.9922C163.955 46.5469 163.763 47.0162 163.379 47.4002C163.017 47.7629 162.558 47.9442 162.003 47.9442C161.726 47.9442 161.438 47.9015 161.139 47.8162C160.862 47.7095 160.649 47.5709 160.499 47.4002L147.923 31.4322L148.755 30.9202V46.1522C148.755 46.6642 148.585 47.0909 148.243 47.4322C147.923 47.7735 147.497 47.9442 146.963 47.9442C146.451 47.9442 146.035 47.7735 145.715 47.4322C145.395 47.0909 145.235 46.6642 145.235 46.1522V27.4962C145.235 26.9415 145.417 26.4829 145.779 26.1202C146.163 25.7362 146.633 25.5442 147.187 25.5442C147.486 25.5442 147.795 25.6082 148.115 25.7362C148.435 25.8429 148.67 26.0135 148.819 26.2482L161.011 41.8002L160.467 42.1842V27.3362C160.467 26.8242 160.627 26.3975 160.947 26.0562C161.267 25.7149 161.694 25.5442 162.227 25.5442ZM176.351 47.9442C175.753 47.9442 175.263 47.7629 174.879 47.4002C174.495 47.0162 174.303 46.5469 174.303 45.9922V27.4322H178.463V45.9922C178.463 46.5469 178.26 47.0162 177.855 47.4002C177.471 47.7629 176.969 47.9442 176.351 47.9442ZM169.279 29.2242C168.724 29.2242 168.255 29.0535 167.871 28.7122C167.508 28.3709 167.327 27.9229 167.327 27.3682C167.327 26.8135 167.508 26.3762 167.871 26.0562C168.255 25.7149 168.724 25.5442 169.279 25.5442H183.487C184.041 25.5442 184.5 25.7149 184.863 26.0562C185.247 26.3975 185.439 26.8455 185.439 27.4002C185.439 27.9549 185.247 28.4029 184.863 28.7442C184.5 29.0642 184.041 29.2242 183.487 29.2242H169.279ZM203.382 25.4482C203.873 25.4482 204.31 25.6402 204.694 26.0242C205.1 26.3869 205.302 26.8562 205.302 27.4322C205.302 27.6242 205.27 27.8269 205.206 28.0402C205.164 28.2322 205.078 28.4242 204.95 28.6162L197.686 39.0162L198.262 36.8082V45.9922C198.262 46.5469 198.07 47.0162 197.686 47.4002C197.324 47.7629 196.897 47.9442 196.406 47.9442C195.873 47.9442 195.414 47.7629 195.03 47.4002C194.668 47.0162 194.486 46.5469 194.486 45.9922V37.0642L194.742 38.0882L187.83 28.9042C187.617 28.6269 187.468 28.3602 187.382 28.1042C187.297 27.8482 187.254 27.6135 187.254 27.4002C187.254 26.8242 187.478 26.3549 187.926 25.9922C188.374 25.6295 188.833 25.4482 189.302 25.4482C189.9 25.4482 190.422 25.7469 190.87 26.3442L197.014 34.8242L196.118 34.6962L201.782 26.4082C202.23 25.7682 202.764 25.4482 203.382 25.4482ZM210.221 25.5442C210.733 25.5442 211.181 25.7362 211.565 26.1202C211.97 26.4829 212.173 26.9415 212.173 27.4962V45.9922C212.173 46.5469 211.97 47.0162 211.565 47.4002C211.16 47.7629 210.69 47.9442 210.157 47.9442C209.56 47.9442 209.08 47.7629 208.717 47.4002C208.354 47.0162 208.173 46.5469 208.173 45.9922V27.4962C208.173 26.9415 208.365 26.4829 208.749 26.1202C209.133 25.7362 209.624 25.5442 210.221 25.5442ZM224.397 25.5442C224.994 25.5442 225.474 25.7362 225.837 26.1202C226.2 26.4829 226.381 26.9415 226.381 27.4962V45.9922C226.381 46.5469 226.189 47.0162 225.805 47.4002C225.442 47.7629 224.952 47.9442 224.333 47.9442C223.821 47.9442 223.362 47.7629 222.957 47.4002C222.573 47.0162 222.381 46.5469 222.381 45.9922V27.4962C222.381 26.9415 222.584 26.4829 222.989 26.1202C223.394 25.7362 223.864 25.5442 224.397 25.5442ZM210.125 34.8562H224.397V38.5362H210.125V34.8562ZM233.477 47.9442C232.88 47.9442 232.346 47.7629 231.877 47.4002C231.408 47.0162 231.173 46.5469 231.173 45.9922V27.4962C231.173 26.9415 231.354 26.4829 231.717 26.1202C232.101 25.7362 232.57 25.5442 233.125 25.5442H242.341C243.45 25.5442 244.485 25.8429 245.445 26.4402C246.426 27.0162 247.216 27.8269 247.813 28.8722C248.41 29.8962 248.709 31.0802 248.709 32.4242C248.709 33.2349 248.538 34.0242 248.197 34.7922C247.877 35.5602 247.429 36.2535 246.853 36.8722C246.298 37.4909 245.669 37.9709 244.965 38.3122L244.997 37.5762C245.594 37.8962 246.085 38.2802 246.469 38.7282C246.874 39.1549 247.184 39.6242 247.397 40.1362C247.632 40.6269 247.77 41.1602 247.813 41.7362C247.898 42.2695 247.952 42.7389 247.973 43.1442C248.016 43.5495 248.08 43.8909 248.165 44.1682C248.272 44.4455 248.464 44.6589 248.741 44.8082C249.21 45.0855 249.498 45.4909 249.605 46.0242C249.733 46.5362 249.616 46.9949 249.253 47.4002C249.018 47.6775 248.72 47.8589 248.357 47.9442C247.994 48.0082 247.632 48.0082 247.269 47.9442C246.906 47.8589 246.608 47.7522 246.373 47.6242C246.01 47.4109 245.648 47.1015 245.285 46.6962C244.922 46.2695 244.624 45.7042 244.389 45.0002C244.176 44.2962 244.069 43.3895 244.069 42.2802C244.069 41.9175 244.005 41.5869 243.877 41.2882C243.749 40.9682 243.568 40.7015 243.333 40.4882C243.098 40.2535 242.8 40.0829 242.437 39.9762C242.074 39.8482 241.648 39.7842 241.157 39.7842H234.693L235.173 39.0482V45.9922C235.173 46.5469 235.024 47.0162 234.725 47.4002C234.426 47.7629 234.01 47.9442 233.477 47.9442ZM234.725 36.4882H242.181C242.565 36.4882 242.938 36.3175 243.301 35.9762C243.664 35.6135 243.962 35.1335 244.197 34.5362C244.432 33.9175 244.549 33.2455 244.549 32.5202C244.549 31.5815 244.293 30.8029 243.781 30.1842C243.29 29.5442 242.757 29.2242 242.181 29.2242H234.789L235.173 28.2002V37.2562L234.725 36.4882Z" fill="#273145"/>
</svg>
