<svg width="216" height="216" viewBox="0 0 216 216" fill="none" xmlns="http://www.w3.org/2000/svg">
<path d="M175.2 12H40.8C24.8942 12 12 24.1357 12 39.1059V176.894C12 191.864 24.8942 204 40.8 204H175.2C191.106 204 204 191.864 204 176.894V39.1059C204 24.1357 191.106 12 175.2 12Z" fill="#80FE02" stroke="#273145" stroke-width="24" stroke-linejoin="round"/>
<path d="M116.4 141.601H99.6C97.6118 141.601 96 143.378 96 145.571V191.63C96 193.823 97.6118 195.601 99.6 195.601H116.4C118.388 195.601 120 193.823 120 191.63V145.571C120 143.378 118.388 141.601 116.4 141.601Z" fill="#273145"/>
<path d="M174.6 90H41.4C38.4177 90 36 92.4177 36 95.4V120.6C36 123.582 38.4177 126 41.4 126H174.6C177.582 126 180 123.582 180 120.6V95.4C180 92.4177 177.582 90 174.6 90Z" fill="#273145"/>
<path d="M49.2068 117C48.7588 117 48.3908 116.864 48.1028 116.592C47.8148 116.304 47.6708 115.952 47.6708 115.536V101.616H50.7908V115.536C50.7908 115.952 50.6388 116.304 50.3348 116.592C50.0468 116.864 49.6708 117 49.2068 117ZM43.9028 102.96C43.4868 102.96 43.1348 102.832 42.8468 102.576C42.5748 102.32 42.4388 101.984 42.4388 101.568C42.4388 101.152 42.5748 100.824 42.8468 100.584C43.1348 100.328 43.4868 100.2 43.9028 100.2H54.5588C54.9748 100.2 55.3188 100.328 55.5908 100.584C55.8788 100.84 56.0228 101.176 56.0228 101.592C56.0228 102.008 55.8788 102.344 55.5908 102.6C55.3188 102.84 54.9748 102.96 54.5588 102.96H43.9028ZM77.6646 100.128C78.0326 100.128 78.3846 100.272 78.7206 100.56C79.0566 100.832 79.2246 101.208 79.2246 101.688C79.2246 101.832 79.2006 101.992 79.1526 102.168L74.4246 116.088C74.3286 116.376 74.1526 116.6 73.8966 116.76C73.6566 116.904 73.4006 116.984 73.1286 117C72.8566 117 72.5846 116.92 72.3126 116.76C72.0566 116.6 71.8566 116.368 71.7126 116.064L68.1606 108L68.3766 108.144L64.8726 116.064C64.7286 116.368 64.5206 116.6 64.2486 116.76C63.9926 116.92 63.7286 117 63.4566 117C63.2006 116.984 62.9446 116.904 62.6886 116.76C62.4326 116.6 62.2566 116.376 62.1606 116.088L57.4326 102.168C57.3846 101.992 57.3606 101.832 57.3606 101.688C57.3606 101.208 57.5286 100.832 57.8646 100.56C58.2166 100.272 58.5766 100.128 58.9446 100.128C59.2486 100.128 59.5286 100.208 59.7846 100.368C60.0566 100.528 60.2406 100.76 60.3366 101.064L64.1526 112.632L63.6246 112.608L67.0326 104.424C67.1606 104.136 67.3446 103.912 67.5846 103.752C67.8246 103.576 68.0966 103.496 68.4006 103.512C68.7046 103.496 68.9766 103.576 69.2166 103.752C69.4566 103.912 69.6326 104.136 69.7446 104.424L72.8646 112.248L72.4806 112.488L76.2486 101.064C76.3446 100.76 76.5286 100.528 76.8006 100.368C77.0726 100.208 77.3606 100.128 77.6646 100.128ZM82.8812 100.2H90.9212C91.3372 100.2 91.6812 100.336 91.9532 100.608C92.2412 100.864 92.3852 101.2 92.3852 101.616C92.3852 102.016 92.2412 102.344 91.9532 102.6C91.6812 102.84 91.3372 102.96 90.9212 102.96H84.2012L84.4172 102.552V107.232L84.2252 107.04H89.8412C90.2572 107.04 90.6012 107.176 90.8732 107.448C91.1612 107.704 91.3052 108.04 91.3052 108.456C91.3052 108.856 91.1612 109.184 90.8732 109.44C90.6012 109.68 90.2572 109.8 89.8412 109.8H84.2972L84.4172 109.608V114.456L84.2252 114.24H90.9212C91.3372 114.24 91.6812 114.384 91.9532 114.672C92.2412 114.944 92.3852 115.264 92.3852 115.632C92.3852 116.032 92.2412 116.36 91.9532 116.616C91.6812 116.872 91.3372 117 90.9212 117H82.8812C82.4652 117 82.1132 116.864 81.8252 116.592C81.5532 116.304 81.4172 115.952 81.4172 115.536V101.664C81.4172 101.248 81.5532 100.904 81.8252 100.632C82.1132 100.344 82.4652 100.2 82.8812 100.2ZM107.896 100.2C108.28 100.2 108.592 100.328 108.832 100.584C109.072 100.84 109.192 101.16 109.192 101.544V115.536C109.192 115.952 109.048 116.304 108.76 116.592C108.488 116.864 108.144 117 107.728 117C107.52 117 107.304 116.968 107.08 116.904C106.872 116.824 106.712 116.72 106.6 116.592L97.1676 104.616L97.7916 104.232V115.656C97.7916 116.04 97.6636 116.36 97.4076 116.616C97.1676 116.872 96.8476 117 96.4476 117C96.0636 117 95.7516 116.872 95.5116 116.616C95.2716 116.36 95.1516 116.04 95.1516 115.656V101.664C95.1516 101.248 95.2876 100.904 95.5596 100.632C95.8476 100.344 96.1996 100.2 96.6156 100.2C96.8396 100.2 97.0716 100.248 97.3116 100.344C97.5516 100.424 97.7276 100.552 97.8396 100.728L106.984 112.392L106.576 112.68V101.544C106.576 101.16 106.696 100.84 106.936 100.584C107.176 100.328 107.496 100.2 107.896 100.2ZM118.488 117C118.04 117 117.672 116.864 117.384 116.592C117.096 116.304 116.952 115.952 116.952 115.536V101.616H120.072V115.536C120.072 115.952 119.92 116.304 119.616 116.592C119.328 116.864 118.952 117 118.488 117ZM113.184 102.96C112.768 102.96 112.416 102.832 112.128 102.576C111.856 102.32 111.72 101.984 111.72 101.568C111.72 101.152 111.856 100.824 112.128 100.584C112.416 100.328 112.768 100.2 113.184 100.2H123.84C124.256 100.2 124.6 100.328 124.872 100.584C125.16 100.84 125.304 101.176 125.304 101.592C125.304 102.008 125.16 102.344 124.872 102.6C124.6 102.84 124.256 102.96 123.84 102.96H113.184ZM138.762 100.128C139.13 100.128 139.458 100.272 139.746 100.56C140.05 100.832 140.202 101.184 140.202 101.616C140.202 101.76 140.178 101.912 140.13 102.072C140.098 102.216 140.034 102.36 139.938 102.504L134.49 110.304L134.922 108.648V115.536C134.922 115.952 134.778 116.304 134.49 116.592C134.218 116.864 133.898 117 133.53 117C133.13 117 132.786 116.864 132.498 116.592C132.226 116.304 132.09 115.952 132.09 115.536V108.84L132.282 109.608L127.098 102.72C126.938 102.512 126.826 102.312 126.762 102.12C126.698 101.928 126.666 101.752 126.666 101.592C126.666 101.16 126.834 100.808 127.17 100.536C127.506 100.264 127.85 100.128 128.202 100.128C128.65 100.128 129.042 100.352 129.378 100.8L133.986 107.16L133.314 107.064L137.562 100.848C137.898 100.368 138.298 100.128 138.762 100.128ZM143.891 100.2C144.275 100.2 144.611 100.344 144.899 100.632C145.203 100.904 145.355 101.248 145.355 101.664V115.536C145.355 115.952 145.203 116.304 144.899 116.592C144.595 116.864 144.243 117 143.843 117C143.395 117 143.035 116.864 142.763 116.592C142.491 116.304 142.355 115.952 142.355 115.536V101.664C142.355 101.248 142.499 100.904 142.787 100.632C143.075 100.344 143.443 100.2 143.891 100.2ZM154.523 100.2C154.971 100.2 155.331 100.344 155.603 100.632C155.875 100.904 156.011 101.248 156.011 101.664V115.536C156.011 115.952 155.867 116.304 155.579 116.592C155.307 116.864 154.939 117 154.475 117C154.091 117 153.747 116.864 153.443 116.592C153.155 116.304 153.011 115.952 153.011 115.536V101.664C153.011 101.248 153.163 100.904 153.467 100.632C153.771 100.344 154.123 100.2 154.523 100.2ZM143.819 107.184H154.523V109.944H143.819V107.184ZM161.333 117C160.885 117 160.485 116.864 160.133 116.592C159.781 116.304 159.605 115.952 159.605 115.536V101.664C159.605 101.248 159.741 100.904 160.013 100.632C160.301 100.344 160.653 100.2 161.069 100.2H167.981C168.813 100.2 169.589 100.424 170.309 100.872C171.045 101.304 171.637 101.912 172.085 102.696C172.533 103.464 172.757 104.352 172.757 105.36C172.757 105.968 172.629 106.56 172.373 107.136C172.133 107.712 171.797 108.232 171.365 108.696C170.949 109.16 170.477 109.52 169.949 109.776L169.973 109.224C170.421 109.464 170.789 109.752 171.077 110.088C171.381 110.408 171.613 110.76 171.773 111.144C171.949 111.512 172.053 111.912 172.085 112.344C172.149 112.744 172.189 113.096 172.205 113.4C172.237 113.704 172.285 113.96 172.349 114.168C172.429 114.376 172.573 114.536 172.781 114.648C173.133 114.856 173.349 115.16 173.429 115.56C173.525 115.944 173.437 116.288 173.165 116.592C172.989 116.8 172.765 116.936 172.493 117C172.221 117.048 171.949 117.048 171.677 117C171.405 116.936 171.181 116.856 171.005 116.76C170.733 116.6 170.461 116.368 170.189 116.064C169.917 115.744 169.693 115.32 169.517 114.792C169.357 114.264 169.277 113.584 169.277 112.752C169.277 112.48 169.229 112.232 169.133 112.008C169.037 111.768 168.901 111.568 168.725 111.408C168.549 111.232 168.325 111.104 168.053 111.024C167.781 110.928 167.461 110.88 167.093 110.88H162.245L162.605 110.328V115.536C162.605 115.952 162.493 116.304 162.269 116.592C162.045 116.864 161.733 117 161.333 117ZM162.269 108.408H167.861C168.149 108.408 168.429 108.28 168.701 108.024C168.973 107.752 169.197 107.392 169.373 106.944C169.549 106.48 169.637 105.976 169.637 105.432C169.637 104.728 169.445 104.144 169.061 103.68C168.693 103.2 168.293 102.96 167.861 102.96H162.317L162.605 102.192V108.984L162.269 108.408Z" fill="#80FE02"/>
</svg>
